<?xml version="1.0" standalone="no"?>
<!DOCTYPE svg PUBLIC "-//W3C//DTD SVG 20010904//EN"
 "http://www.w3.org/TR/2001/REC-SVG-20010904/DTD/svg10.dtd">
<svg version="1.0" xmlns="http://www.w3.org/2000/svg"
 width="1200.000000pt" height="1600.000000pt" viewBox="0 0 1200.000000 1600.000000"
 preserveAspectRatio="xMidYMid meet">

<g transform="translate(0.000000,1600.000000) scale(0.100000,-0.100000)"
fill="#000000" stroke="none">
<path d="M6445 13283 c-248 -12 -609 -75 -775 -134 -30 -11 -61 -22 -69 -25
-8 -2 -12 -7 -9 -9 3 -3 44 8 91 25 83 29 157 39 157 21 0 -13 -87 -41 -125
-41 -17 0 -35 -4 -40 -9 -15 -13 -84 -21 -90 -10 -8 12 -45 12 -45 -1 0 -5
-19 -15 -42 -22 -24 -6 -57 -22 -74 -35 -27 -20 -133 -63 -156 -63 -4 0 -8 4
-8 10 0 5 24 16 53 25 52 15 92 35 72 35 -23 0 -131 -43 -150 -59 -11 -10 -58
-37 -105 -61 -47 -23 -92 -48 -100 -54 -8 -7 -41 -28 -72 -46 -32 -19 -58 -38
-58 -42 0 -4 -6 -8 -12 -8 -7 0 -33 -19 -57 -43 -41 -38 -43 -42 -23 -45 12
-2 32 4 44 12 12 9 29 16 37 16 11 0 11 -4 -3 -19 -16 -17 -15 -19 16 -32 17
-7 40 -14 50 -14 22 -2 34 -13 24 -22 -4 -4 -10 -3 -14 3 -4 5 -18 10 -32 11
-14 0 -45 4 -68 7 -26 4 -41 3 -38 -2 3 -6 -2 -16 -11 -23 -14 -12 -15 -11 -9
7 5 17 2 23 -14 27 -15 4 -21 1 -19 -11 1 -9 1 -24 0 -32 -1 -12 -3 -12 -10
-2 -13 21 -78 4 -112 -29 -26 -25 -37 -29 -87 -29 -61 0 -113 -11 -134 -29
-19 -16 -80 -61 -127 -94 -55 -38 -121 -141 -121 -189 0 -21 5 -38 11 -38 7 0
8 11 4 29 -8 39 20 92 81 154 51 51 64 57 64 30 0 -14 3 -13 16 5 30 43 224
124 224 94 0 -5 -26 -21 -57 -35 -72 -33 -120 -75 -129 -111 -3 -15 -13 -30
-20 -33 -19 -7 -18 -72 0 -79 17 -7 40 -58 33 -76 -2 -7 -11 2 -20 22 -20 45
-20 23 -2 -65 18 -83 17 -78 5 -70 -5 3 -24 35 -41 71 -17 36 -34 63 -36 60
-4 -4 35 -104 58 -148 13 -25 11 -50 -3 -46 -7 3 -15 15 -19 29 -7 22 -7 23
-8 2 -1 -12 6 -28 14 -37 8 -8 15 -30 15 -48 0 -19 5 -39 11 -45 7 -7 3 -9
-16 -5 -15 2 -31 15 -37 28 -6 13 -15 24 -20 24 -5 0 -4 -9 2 -20 13 -24 58
-70 69 -70 13 0 31 -49 24 -66 -5 -13 -8 -13 -15 -2 -6 9 -7 6 -3 -10 11 -38
-22 -40 -56 -2 -17 18 -33 30 -36 26 -4 -3 4 -17 17 -31 13 -14 18 -25 12 -25
-6 0 -9 -7 -5 -16 3 -9 2 -19 -3 -23 -5 -3 -17 -16 -27 -27 -17 -21 -17 -21 8
-17 34 7 32 -2 -10 -38 -40 -36 -67 -83 -53 -97 5 -5 3 -14 -7 -22 -8 -7 -15
-18 -15 -25 0 -8 -10 -22 -22 -32 -22 -17 -31 -54 -17 -68 4 -3 -4 -38 -18
-78 -13 -40 -27 -83 -32 -97 -5 -14 -12 -34 -16 -44 -6 -14 -5 -17 3 -12 18
11 14 -10 -9 -56 -33 -64 -49 -128 -49 -194 0 -33 -7 -83 -16 -110 -11 -34
-17 -106 -20 -239 -3 -104 -11 -239 -19 -300 -7 -60 -17 -162 -20 -225 -3 -63
-8 -146 -11 -185 -4 -68 13 -205 26 -205 11 0 42 -79 35 -90 -3 -5 -21 -11
-38 -11 -22 -1 -25 -3 -10 -6 40 -8 46 -26 39 -125 -11 -162 -17 -198 -35
-209 -12 -8 -15 -22 -13 -58 4 -52 2 -55 -68 -92 -69 -36 -120 -88 -120 -122
0 -15 -5 -38 -11 -49 -6 -12 -13 -67 -15 -122 -3 -56 -6 -107 -9 -113 -2 -7
-1 -13 3 -13 9 0 67 -133 74 -170 7 -38 31 -45 81 -25 14 6 17 1 17 -32 0 -21
-4 -43 -10 -49 -5 -5 -17 -45 -26 -89 -14 -66 -14 -88 -5 -127 10 -37 10 -55
-2 -95 -15 -50 -14 -80 3 -148 6 -22 10 -49 9 -60 -3 -106 5 -270 16 -310 8
-27 14 -44 14 -37 2 28 21 9 21 -20 -1 -31 -1 -32 -15 -14 -20 27 -19 2 2 -37
9 -18 18 -50 20 -71 2 -22 11 -49 21 -60 10 -12 24 -33 32 -48 7 -16 17 -28
22 -28 4 0 8 -5 8 -11 0 -8 -4 -8 -12 -1 -7 5 -24 13 -38 17 l-25 7 23 -24
c12 -13 22 -36 22 -51 0 -15 5 -27 10 -27 6 0 10 -10 10 -23 0 -13 7 -32 15
-43 8 -10 15 -25 15 -32 0 -7 9 -31 19 -53 11 -22 17 -47 14 -55 -3 -8 1 -14
11 -14 9 0 16 -8 16 -19 0 -11 16 -32 35 -46 19 -15 34 -30 34 -33 -3 -20 3
-32 15 -32 7 0 19 -6 25 -14 10 -12 8 -15 -11 -18 -22 -4 -22 -5 -3 -12 48
-19 61 -28 61 -47 0 -24 -12 -25 -25 -1 -6 9 -11 12 -11 5 0 -6 5 -15 11 -18
5 -4 21 -30 35 -58 15 -32 38 -61 60 -75 19 -12 32 -27 29 -32 -3 -5 4 -19 15
-30 24 -24 43 -67 42 -92 0 -10 3 -18 8 -18 5 0 7 -7 4 -15 -4 -8 -1 -21 4
-28 6 -7 14 -32 18 -56 4 -24 17 -55 30 -71 13 -15 24 -35 24 -44 0 -8 9 -20
20 -26 11 -6 20 -14 20 -19 0 -5 8 -26 17 -47 9 -22 16 -46 14 -54 -2 -13 -1
-13 8 0 8 12 13 12 23 2 10 -10 8 -14 -10 -18 -28 -8 -27 -11 1 -34 13 -11 31
-17 44 -13 24 5 72 -24 73 -45 0 -7 7 -20 15 -28 18 -19 19 -34 3 -34 -7 0 -2
-7 10 -16 12 -8 22 -22 22 -31 0 -10 6 -14 20 -10 17 4 19 1 14 -19 -5 -19 -1
-26 20 -35 36 -17 58 -54 55 -94 -3 -26 3 -38 28 -59 17 -14 38 -26 47 -26 9
0 19 -7 22 -15 4 -8 12 -15 18 -15 7 0 20 -17 29 -38 11 -25 27 -41 49 -50 28
-11 31 -15 18 -25 -8 -7 -22 -20 -30 -31 -14 -18 -13 -18 18 -12 20 5 32 4 32
-3 0 -5 16 -18 35 -27 19 -9 35 -23 35 -31 0 -22 22 -40 59 -48 37 -8 71 -33
71 -52 0 -6 9 -15 20 -18 11 -3 20 -10 20 -15 0 -13 72 -51 86 -46 20 8 44 -4
44 -20 0 -7 9 -18 20 -24 14 -7 20 -7 20 0 0 5 6 10 13 10 23 0 67 -25 67 -37
0 -7 11 -13 25 -13 14 0 25 -4 25 -9 0 -15 57 -71 72 -71 8 0 19 5 26 12 16
16 57 -7 72 -41 9 -23 17 -26 68 -29 54 -3 102 -22 54 -22 -20 0 -21 -2 -11
-22 11 -21 12 -21 25 -3 16 22 17 21 32 -23 7 -21 7 -32 1 -32 -6 0 -7 -5 -4
-10 4 -6 12 -4 21 5 17 17 20 17 52 8 15 -4 22 -11 19 -22 -3 -13 4 -15 40
-12 l43 3 0 -47 c0 -25 5 -56 11 -68 9 -16 9 -22 0 -25 -6 -2 -11 -12 -11 -22
0 -11 -9 -24 -20 -30 -11 -6 -20 -19 -20 -30 0 -10 -27 -46 -61 -81 -45 -46
-57 -64 -47 -70 10 -7 10 -9 1 -9 -7 0 -13 -6 -13 -14 0 -7 -12 -22 -27 -31
-39 -26 -90 -79 -97 -103 -7 -21 -52 -42 -92 -42 -13 0 -24 -4 -24 -10 0 -18
-29 -10 -41 11 -7 14 -17 19 -29 16 -11 -3 -24 1 -31 9 -6 8 -22 14 -35 14
-22 0 -24 4 -24 43 0 29 -3 38 -9 28 -8 -12 -14 -13 -36 -3 -34 16 -35 16 -36
-10 l0 -23 -9 23 c-7 16 -18 22 -40 22 -21 0 -30 5 -30 16 0 14 -2 15 -17 3
-15 -13 -15 -14 1 -17 9 -2 21 -15 26 -28 6 -14 18 -27 27 -31 10 -4 25 -15
34 -25 17 -19 69 -25 69 -8 0 6 -9 10 -21 10 -11 0 -17 5 -14 10 9 15 17 12
48 -14 26 -23 37 -56 17 -56 -5 0 -10 7 -10 15 0 8 -4 15 -10 15 -5 0 -10 -11
-10 -25 0 -18 -5 -25 -20 -25 -29 0 -25 -30 10 -64 31 -30 39 -70 18 -80 -10
-5 -10 -7 0 -12 6 -3 12 -19 12 -36 0 -27 -2 -30 -25 -24 -29 7 -33 -8 -9 -35
14 -16 14 -18 -5 -29 l-21 -11 21 -29 c12 -16 34 -34 48 -40 15 -6 40 -23 55
-37 24 -22 32 -24 47 -15 26 16 49 15 49 -3 0 -11 11 -15 40 -15 22 0 40 -4
40 -10 0 -5 9 -10 20 -10 11 0 20 -5 20 -10 0 -6 8 -19 18 -30 16 -17 21 -18
45 -5 14 7 52 16 84 19 40 4 52 3 38 -3 -11 -5 -30 -10 -42 -10 -16 -1 -23 -7
-23 -21 0 -29 54 -27 84 4 36 35 54 39 48 10 -2 -13 -8 -24 -13 -24 -5 0 -9
-9 -9 -20 0 -30 17 -24 60 20 26 27 47 40 65 40 21 0 26 4 21 16 -3 9 -9 27
-12 40 -6 22 -3 24 35 24 28 0 41 4 41 14 0 12 56 43 70 39 3 0 11 5 18 13 7
8 8 14 2 14 -5 0 -10 7 -10 15 0 8 5 15 10 15 6 0 16 11 22 25 6 14 19 25 30
25 11 0 18 7 18 18 0 10 18 31 40 48 41 30 52 54 24 54 -34 0 -5 25 32 27 69
4 75 6 70 20 -3 7 1 13 8 13 8 0 16 6 19 13 2 6 8 9 12 4 9 -8 -29 -66 -52
-80 -7 -4 -13 -17 -13 -28 0 -17 -49 -101 -69 -119 -4 -3 -18 -21 -33 -42 -15
-20 -34 -42 -41 -50 -7 -7 -28 -35 -47 -63 -19 -27 -39 -54 -45 -60 -6 -5 -24
-28 -40 -50 -42 -57 -41 -56 -75 -96 -16 -20 -30 -41 -30 -47 0 -6 -3 -12 -7
-14 -13 -5 -73 -86 -73 -97 0 -5 -4 -11 -9 -13 -5 -1 -41 -48 -79 -103 -39
-55 -75 -104 -80 -110 -4 -5 -34 -48 -67 -95 -32 -47 -64 -91 -71 -97 -7 -7
-18 -26 -25 -42 -19 -42 -44 -54 -142 -62 -68 -5 -95 -4 -115 7 -21 11 -23 14
-8 14 16 0 14 5 -13 30 -17 17 -31 37 -31 45 0 8 -7 15 -16 15 -9 0 -27 10
-39 23 -40 41 -95 77 -118 77 -20 0 -106 88 -113 116 -3 13 -12 24 -20 24 -8
0 -14 5 -14 12 0 6 -6 19 -14 27 -39 44 -66 115 -66 175 0 42 -6 73 -20 99
-11 20 -20 47 -20 58 0 28 -22 102 -32 110 -5 3 -9 28 -10 55 -1 27 -5 54 -9
60 -13 17 -38 132 -33 151 3 10 -8 33 -26 53 -30 35 -36 68 -11 62 7 -1 11 1
9 5 -26 56 -45 89 -52 95 -12 8 -16 158 -4 158 4 0 8 7 8 15 0 21 -30 31 -41
14 -4 -8 -5 11 -2 44 4 39 2 66 -7 82 -17 32 -10 38 26 24 16 -6 23 -13 17
-16 -33 -12 -2 -113 34 -113 7 0 13 -4 13 -10 0 -5 4 -10 8 -10 12 0 9 91 -2
109 -6 10 -5 16 3 19 7 2 0 14 -18 30 -38 34 -73 82 -108 152 -31 60 -46 80
-62 80 -15 0 -14 17 2 24 8 3 6 9 -8 17 -20 13 -19 13 4 19 l24 5 -28 33 c-21
25 -30 30 -36 20 -13 -20 -22 -1 -21 40 1 31 -3 41 -22 51 -25 14 -53 83 -36
89 15 6 12 29 -7 48 -13 12 -18 32 -17 66 0 38 -3 48 -13 43 -10 -3 -23 14
-42 55 -15 34 -30 58 -34 54 -4 -4 -7 7 -7 24 0 18 5 32 11 32 6 0 3 7 -5 16
-9 8 -16 22 -16 30 0 8 -5 13 -12 12 -6 -2 -13 6 -15 17 -2 11 -8 29 -12 40
-13 31 -30 114 -37 184 -8 75 -7 75 -74 -79 -23 -52 -49 -111 -57 -130 -16
-35 -55 -91 -84 -121 -9 -9 -35 -41 -58 -71 l-41 -55 -113 -31 c-61 -17 -182
-52 -267 -77 -85 -26 -184 -55 -220 -65 -36 -10 -121 -34 -190 -53 -69 -20
-177 -50 -240 -67 -108 -29 -351 -103 -395 -121 -20 -8 -290 -102 -530 -185
-71 -25 -139 -49 -150 -54 -88 -41 -464 -147 -775 -220 -30 -7 -129 -37 -220
-68 -130 -43 -185 -56 -260 -62 -115 -10 -193 -39 -299 -112 -131 -91 -238
-218 -333 -398 -25 -47 -69 -125 -97 -174 l-51 -89 0 -1713 0 -1714 6000 0
6000 0 0 1819 c0 1001 -4 1822 -8 1825 -5 3 -60 19 -123 36 -63 17 -157 44
-209 60 -52 16 -129 38 -170 50 -184 52 -663 200 -940 290 -80 25 -176 56
-215 68 -38 11 -117 35 -175 52 -89 27 -394 141 -495 185 -16 7 -84 36 -150
63 -124 52 -400 170 -470 202 -22 10 -137 60 -255 110 -118 51 -219 95 -225
99 -40 28 -307 116 -428 141 -62 12 -60 10 -134 125 -74 115 -92 149 -117 221
-23 66 -97 219 -117 238 -12 13 -12 133 0 140 14 9 43 141 44 196 1 34 5 50
14 50 7 0 13 -4 13 -8 0 -8 80 -52 94 -52 4 0 1 7 -8 15 -8 8 -18 15 -23 15
-4 0 -20 11 -35 24 -29 24 -36 50 -18 61 15 10 12 28 -4 22 -24 -9 -24 24 1
78 13 28 23 56 23 63 0 6 5 12 10 12 6 0 15 11 20 24 5 14 19 26 32 28 13 2
23 10 23 18 0 8 4 16 8 17 5 1 17 12 28 24 10 12 22 19 25 16 7 -6 64 52 64
65 0 22 55 68 81 68 15 0 31 5 34 10 3 6 -1 10 -10 10 -9 0 -14 4 -10 10 3 5
13 6 22 3 13 -5 15 -2 11 15 -6 20 2 27 25 23 4 0 7 6 7 14 0 8 -7 15 -16 15
-29 0 -10 33 43 74 28 23 50 47 47 54 -2 7 0 11 5 8 11 -7 46 32 38 41 -4 3
-7 1 -7 -5 0 -7 -4 -12 -10 -12 -17 0 -11 29 11 51 12 12 19 29 16 39 -3 13 0
17 10 13 8 -3 12 -12 9 -20 -15 -37 -17 -63 -7 -63 6 0 14 12 17 28 4 15 10
29 14 32 13 11 51 80 43 80 -4 0 1 7 11 15 14 11 16 15 5 15 -12 0 -12 2 0 9
11 7 13 25 8 79 -6 59 -4 71 9 76 12 5 13 10 6 19 -7 9 -8 27 -1 56 5 24 10
59 11 78 1 21 4 29 9 21 6 -10 12 -8 23 7 14 20 18 21 55 24 11 0 38 19 60 41
31 31 41 48 41 73 0 43 15 59 45 45 13 -6 29 -7 38 -2 29 17 132 118 161 158
16 23 32 43 36 46 4 3 17 23 29 45 27 50 71 127 101 180 12 22 36 65 52 95 17
30 34 57 39 58 5 2 9 8 9 13 0 6 17 36 37 67 21 31 44 69 51 83 7 15 21 35 30
45 58 64 106 244 106 394 0 69 -4 93 -22 128 -12 23 -27 42 -33 42 -6 0 -7 4
-4 10 3 5 -6 20 -21 32 -15 13 -33 29 -40 36 -37 36 -97 46 -274 47 -96 1
-183 2 -192 3 -25 3 -22 18 3 25 12 3 18 10 14 16 -3 6 0 14 8 16 9 4 13 20
11 52 -2 25 3 61 11 81 8 19 15 42 15 52 0 9 12 22 27 29 19 9 23 15 14 20 -9
6 -11 21 -6 55 6 40 5 46 -11 47 -42 3 -47 4 -51 15 -3 8 7 10 29 7 l34 -4 13
63 c18 84 59 242 72 276 6 15 17 62 25 105 8 44 19 87 24 96 5 9 19 60 31 114
18 79 28 106 58 142 24 30 37 40 39 30 2 -8 -13 -34 -32 -58 -39 -48 -43 -57
-23 -57 11 1 51 54 83 112 16 27 27 7 15 -26 -6 -13 -28 -55 -51 -92 -22 -37
-39 -69 -36 -71 5 -5 72 97 89 134 27 61 79 143 88 137 5 -3 6 2 3 10 -4 10
-1 16 9 16 8 0 17 13 21 30 3 17 11 29 17 28 12 -3 19 18 39 107 13 62 28 95
43 95 19 0 38 124 44 285 3 72 9 134 13 139 5 4 5 20 0 35 -4 14 -13 51 -20
81 -17 77 -71 212 -145 365 -37 78 -69 161 -80 208 -17 79 -69 210 -106 269
-75 119 -103 157 -174 240 -43 51 -173 186 -288 300 -242 241 -300 283 -611
447 -44 23 -99 55 -123 71 -24 17 -47 30 -50 30 -3 0 -30 11 -59 25 -66 31
-373 139 -474 167 -367 100 -562 120 -945 101z m-568 -109 c-3 -3 -12 -4 -19
-1 -8 3 -5 6 6 6 11 1 17 -2 13 -5z m-417 -169 c-7 -8 -16 -15 -21 -15 -4 0
-56 -28 -114 -61 -119 -68 -247 -112 -215 -74 7 8 28 18 48 21 20 4 43 13 50
21 39 38 91 69 160 94 91 33 110 36 92 14z m1435 -45 c25 -11 -1 -11 -35 0
-20 6 -21 8 -5 8 11 0 29 -3 40 -8z m261 -32 c42 -13 62 -23 50 -26 -18 -4
-103 23 -120 39 -14 13 -6 11 70 -13z m-1996 -32 c0 -5 -60 -36 -69 -36 -11 1
44 40 57 40 6 0 12 -2 12 -4z m-80 -54 c0 -4 -9 -13 -20 -20 -17 -10 -20 -10
-20 2 0 8 8 17 18 19 9 3 18 5 20 6 1 0 2 -2 2 -7z m-80 -21 c0 -5 -7 -12 -16
-15 -14 -5 -15 -4 -4 9 14 17 20 19 20 6z m70 -25 c0 -7 -71 -46 -83 -46 -20
1 43 50 64 50 10 0 19 -2 19 -4z m-142 -46 c12 -19 11 -20 -8 -8 -11 7 -20 16
-20 20 0 15 15 8 28 -12z m3498 -69 c80 -57 163 -130 149 -130 -12 0 -180 124
-213 157 -36 36 -10 25 64 -27z m-3491 19 c-3 -5 -11 -10 -16 -10 -6 0 -7 5
-4 10 3 6 11 10 16 10 6 0 7 -4 4 -10z m1980 -26 c20 -8 35 -17 33 -20 -6 -5
-78 24 -78 31 0 7 4 6 45 -11z m1480 -14 c3 -5 2 -10 -4 -10 -5 0 -13 5 -16
10 -3 6 -2 10 4 10 5 0 13 -4 16 -10z m-1375 -35 c16 -9 19 -14 9 -15 -8 0
-24 7 -35 15 -24 18 -7 19 26 0z m1552 -113 c2 -4 23 -22 48 -40 79 -57 231
-204 267 -259 19 -29 39 -53 44 -53 24 0 185 -223 242 -335 41 -81 78 -168 73
-173 -9 -8 -26 10 -41 41 -8 18 -19 39 -24 47 -5 8 -22 44 -37 80 -17 38 -48
84 -76 112 -25 26 -54 65 -64 88 -10 22 -24 40 -31 40 -7 0 -12 3 -11 8 4 16
-14 52 -26 52 -7 0 -30 21 -50 48 -20 26 -105 116 -188 200 -84 83 -147 152
-141 152 6 0 13 -3 15 -8z m-1877 -12 c3 -5 -1 -10 -9 -10 -9 0 -16 5 -16 10
0 6 4 10 9 10 6 0 13 -4 16 -10z m-2165 -38 c0 -5 -20 -44 -45 -87 -24 -43
-47 -91 -50 -106 -8 -37 -16 -36 -38 0 -23 39 -21 59 11 106 36 51 122 113
122 87z m2617 -8 c-3 -3 -12 -4 -19 -1 -8 3 -5 6 6 6 11 1 17 -2 13 -5z
m-2449 -26 c-6 -18 -28 -21 -28 -4 0 9 7 16 16 16 9 0 14 -5 12 -12z m2502 2
c0 -5 -2 -10 -4 -10 -3 0 -8 5 -11 10 -3 6 -1 10 4 10 6 0 11 -4 11 -10z
m-390 -70 c8 -5 11 -10 5 -10 -5 0 -17 5 -25 10 -8 5 -10 10 -5 10 6 0 17 -5
25 -10z m-2270 -76 c0 -8 -4 -12 -10 -9 -5 3 -10 10 -10 16 0 5 5 9 10 9 6 0
10 -7 10 -16z m1813 -71 c-7 -2 -19 -2 -25 0 -7 3 -2 5 12 5 14 0 19 -2 13 -5z
m-1838 -22 c3 -5 1 -12 -5 -16 -5 -3 -10 1 -10 9 0 18 6 21 15 7z m4349 -43
c-3 -5 -12 -4 -20 3 -7 6 -11 15 -8 21 3 5 12 4 20 -3 7 -6 11 -15 8 -21z
m-4388 -13 c3 -8 0 -21 -8 -29 -13 -12 -15 -10 -15 15 0 31 14 39 23 14z
m1379 -25 c3 -5 1 -10 -4 -10 -6 0 -11 5 -11 10 0 6 2 10 4 10 3 0 8 -4 11
-10z m-1320 -89 c3 -5 1 -12 -5 -16 -5 -3 -10 1 -10 9 0 18 6 21 15 7z m25
-21 c0 -5 -5 -10 -11 -10 -5 0 -7 5 -4 10 3 6 8 10 11 10 2 0 4 -4 4 -10z
m-100 -100 c0 -5 -2 -10 -4 -10 -3 0 -8 5 -11 10 -3 6 -1 10 4 10 6 0 11 -4
11 -10z m951 -56 c10 -12 10 -25 2 -56 -12 -46 1 -58 43 -39 14 6 40 11 59 11
36 0 41 5 26 29 -5 8 -7 20 -4 28 4 11 12 8 33 -12 16 -15 32 -28 37 -28 4 -1
7 -5 6 -9 -4 -12 12 -9 24 3 13 13 47 4 39 -9 -3 -5 9 -7 27 -5 l32 3 -29 -14
c-26 -12 -27 -14 -10 -19 21 -6 106 -19 144 -22 22 -1 66 -21 80 -35 9 -9 44
-30 67 -39 11 -6 35 -23 51 -40 19 -18 58 -38 101 -51 39 -13 78 -31 87 -41 9
-11 27 -19 39 -19 12 0 30 -8 41 -19 11 -10 31 -22 45 -26 13 -4 31 -13 39
-20 8 -7 32 -18 53 -26 20 -7 37 -17 37 -21 0 -4 20 -8 45 -8 25 0 45 5 45 10
0 13 47 13 52 1 2 -6 24 -11 50 -12 34 -2 48 -7 51 -19 3 -10 19 -20 40 -24
20 -4 37 -12 39 -18 2 -6 24 -12 49 -14 44 -2 44 -2 47 -41 2 -31 9 -43 32
-57 17 -9 30 -21 30 -26 0 -6 18 -13 40 -16 22 -4 40 -12 40 -18 0 -6 7 -2 15
8 13 17 15 17 21 3 9 -24 29 -21 43 6 l11 22 -6 -22 c-4 -19 -1 -23 18 -23 13
0 32 -6 43 -13 11 -8 41 -19 67 -27 26 -7 53 -19 59 -26 13 -16 49 -19 49 -4
0 17 16 11 43 -15 14 -14 47 -37 74 -50 26 -13 42 -24 36 -24 -30 -2 -10 -21
21 -21 50 0 66 -9 66 -36 0 -17 6 -24 18 -24 10 0 25 -11 32 -25 10 -18 19
-24 32 -19 14 4 21 0 25 -15 4 -17 13 -21 48 -21 47 0 125 -35 125 -56 0 -23
-19 -64 -30 -64 -14 0 -12 37 3 43 6 2 9 8 5 12 -4 4 -14 0 -23 -8 -17 -17
-21 -92 -5 -102 6 -3 10 -26 10 -51 0 -38 4 -46 25 -54 16 -6 23 -14 19 -25
-3 -8 -1 -15 5 -15 7 0 3 -16 -9 -40 -22 -43 -26 -44 -104 -19 -39 12 -41 12
-26 -6 10 -13 9 -15 -11 -15 -19 0 -21 -2 -9 -10 10 -6 0 -10 -33 -12 -26 -2
-46 -7 -45 -13 3 -10 -20 -15 -162 -35 -112 -16 -113 -16 -138 -29 -27 -14
-76 4 -51 20 7 4 10 11 7 15 -8 8 -68 -15 -68 -26 0 -4 -12 -12 -26 -19 -23
-10 -26 -10 -20 5 11 30 18 64 13 64 -4 0 -19 -19 -36 -42 -16 -24 -41 -56
-55 -72 -14 -16 -26 -35 -26 -43 0 -7 -4 -13 -9 -13 -11 0 -8 107 4 133 7 17
6 18 -14 6 -12 -8 -24 -22 -27 -32 -3 -11 -14 -27 -24 -37 -10 -10 -24 -34
-31 -53 -22 -61 -59 -54 -59 11 0 21 -2 24 -10 12 -5 -8 -10 -25 -10 -38 0
-13 -4 -20 -10 -17 -5 3 -10 14 -10 24 0 10 -6 24 -14 30 -12 10 -14 4 -13
-36 2 -34 -2 -47 -10 -45 -7 1 -13 -4 -13 -10 0 -7 -9 1 -20 17 -11 17 -20 26
-21 20 0 -5 -3 -21 -5 -35 -3 -14 -9 -45 -13 -70 -7 -42 -8 -43 -15 -17 -5 15
-14 27 -21 27 -8 0 -16 8 -18 18 -5 21 1 -21 9 -65 4 -22 3 -33 -5 -33 -6 0
-11 10 -11 23 0 13 -7 32 -16 43 -14 18 -15 16 -11 -23 4 -33 2 -43 -9 -43 -8
0 -14 5 -14 10 0 6 -4 10 -10 10 -5 0 -10 -13 -10 -30 0 -16 -4 -30 -9 -30
-17 0 -35 -65 -35 -132 -1 -57 -4 -68 -18 -68 -9 0 -18 5 -20 11 -2 7 -4 -6
-5 -27 -1 -37 12 -58 29 -48 4 3 8 14 8 25 0 10 5 19 10 19 6 0 10 -13 10 -30
0 -22 -5 -30 -17 -30 -14 0 -15 -2 -5 -9 7 -4 19 -19 26 -33 l14 -26 -42 4
c-22 2 14 -10 82 -27 67 -18 122 -36 122 -41 0 -6 -8 -7 -17 -3 -10 4 -58 11
-108 16 -49 4 -124 15 -165 23 -67 13 -312 33 -350 29 -16 -2 -30 14 -30 35 0
8 19 12 58 13 40 1 50 3 32 8 -24 7 -25 11 -23 70 2 61 11 90 20 64 8 -22 33
-14 45 12 8 18 14 22 19 13 4 -7 11 -9 15 -5 4 4 -1 15 -10 26 -16 18 -16 24
-2 95 9 41 16 78 16 81 0 3 5 3 10 0 6 -4 9 9 9 32 -1 23 -3 29 -6 16 -6 -31
-23 -29 -23 2 0 14 -4 25 -9 25 -11 0 -23 -63 -15 -83 5 -14 -29 -107 -39
-107 -2 0 2 23 9 52 8 29 14 69 14 90 0 21 6 47 12 58 10 16 10 23 -4 36 -16
16 -17 16 -11 -7 l5 -24 -18 24 c-12 17 -14 26 -6 29 16 5 15 33 -2 55 -14 18
-42 24 -31 6 8 -12 -14 -69 -26 -69 -5 0 -9 12 -10 28 0 15 -3 21 -6 15 -8
-22 -20 -14 -44 32 -13 25 -27 45 -31 45 -10 0 -11 3 12 -58 21 -56 26 -97 10
-87 -5 3 -12 28 -16 54 -5 37 -15 58 -44 90 -24 26 -40 37 -43 29 -4 -10 -7
-11 -18 0 -7 6 -20 12 -28 11 -11 0 -12 -2 -3 -6 6 -2 12 -11 12 -19 0 -8 5
-14 10 -14 6 0 10 -5 10 -11 0 -6 -15 2 -33 18 -19 15 -32 33 -30 39 4 12 -76
54 -102 54 -8 0 -15 5 -15 11 0 7 -10 9 -25 7 -14 -3 -28 -1 -31 3 -3 5 -18 9
-34 9 -15 0 -30 4 -32 10 -1 5 -23 12 -48 15 -39 5 -42 4 -20 -6 16 -7 20 -13
12 -16 -21 -8 -62 6 -62 21 0 30 -33 41 -124 43 -98 2 -165 11 -181 23 -14 11
-70 21 -146 27 -51 3 -70 1 -81 -11 -9 -8 -40 -18 -69 -22 -62 -8 -133 -42
-168 -79 -13 -14 -34 -25 -47 -25 -13 0 -24 -4 -24 -10 0 -11 27 -18 85 -23
22 -1 -59 -3 -180 -3 -236 0 -312 -12 -362 -57 -18 -16 -23 -17 -23 -6 0 8 4
19 9 25 8 8 19 68 41 224 13 91 37 167 63 196 29 34 79 64 106 64 15 0 21 6
21 22 0 21 0 21 -14 2 -12 -15 -17 -17 -27 -6 -9 9 -10 15 -2 23 16 16 47 7
58 -19 15 -34 45 -29 45 8 0 34 5 37 28 14 10 -11 17 -13 20 -5 2 6 15 11 29
11 14 0 36 9 50 20 14 11 32 20 39 20 8 0 14 5 14 10 0 6 -18 10 -40 10 -22 0
-40 -4 -40 -10 0 -5 -9 -10 -21 -10 -14 0 -18 4 -12 13 12 18 11 57 -2 57 -5
0 5 8 23 16 35 18 43 44 13 44 -11 0 -23 5 -26 10 -3 6 4 10 16 10 12 0 39 19
65 45 23 25 38 45 33 45 -16 0 -9 25 11 38 11 7 20 17 20 22 0 6 -9 10 -20 10
-11 0 -20 5 -20 10 0 6 5 10 11 10 8 0 7 5 -1 15 -10 13 -10 19 3 33 8 9 18
33 22 54 5 24 13 38 26 41 10 3 19 10 19 17 0 6 -4 9 -8 6 -4 -2 -14 0 -22 5
-12 7 -11 10 7 15 25 7 40 34 19 34 -11 0 -12 5 -3 25 7 14 17 25 24 25 15 0
36 65 28 89 -7 24 12 101 25 101 6 0 10 9 10 19 0 21 33 33 67 25 18 -5 21 -3
16 15 -4 17 -1 21 21 21 18 0 24 4 20 15 -8 21 13 19 25 -2 6 -10 11 -12 11
-5 0 7 15 12 40 12 22 0 40 4 40 8 0 5 27 16 60 25 33 10 60 21 60 25 0 5 27
6 60 4 40 -3 60 -1 60 7 0 17 36 13 51 -5z m108 0 c2 -2 -10 -4 -27 -4 -18 0
-32 -5 -32 -11 0 -5 -4 -7 -10 -4 -5 3 -10 12 -10 20 0 10 10 12 38 8 20 -3
39 -7 41 -9z m-1084 -4 c3 -5 1 -10 -4 -10 -6 0 -11 5 -11 10 0 6 2 10 4 10 3
0 8 -4 11 -10z m755 -1370 c0 -6 -23 -9 -52 -9 -49 2 -51 2 -18 9 53 11 70 11
70 0z m43 3 c-7 -2 -19 -2 -25 0 -7 3 -2 5 12 5 14 0 19 -2 13 -5z m216 -17
c-12 -10 -59 -15 -59 -6 0 5 14 10 32 10 17 0 29 -2 27 -4z m51 -66 c0 -5 -2
-10 -4 -10 -3 0 -8 5 -11 10 -3 6 -1 10 4 10 6 0 11 -4 11 -10z m2428 3 c-10
-2 -26 -2 -35 0 -10 3 -2 5 17 5 19 0 27 -2 18 -5z m-128 -19 c0 -2 -9 -4 -20
-4 -11 0 -20 4 -20 9 0 5 9 7 20 4 11 -3 20 -7 20 -9z m67 -10 c-3 -3 -12 -4
-19 -1 -8 3 -5 6 6 6 11 1 17 -2 13 -5z m68 -14 c7 -12 -2 -12 -30 0 -19 8
-19 9 2 9 12 1 25 -3 28 -9z m-2953 -26 c3 -2 69 -16 145 -30 378 -69 787
-255 967 -438 42 -43 61 -80 69 -141 l6 -40 -12 35 c-19 55 -54 105 -106 152
-65 58 -232 158 -290 174 -61 16 -81 24 -81 34 0 4 -21 18 -46 30 -38 17 -49
19 -55 8 -8 -12 -13 -4 -10 16 1 4 -11 5 -26 2 -21 -5 -24 -4 -13 4 14 9 7 15
-14 11 -5 -1 -32 3 -59 10 -35 8 -45 14 -36 21 11 7 9 9 -6 7 -40 -3 -61 1
-48 9 8 5 -2 8 -24 9 -21 1 -39 6 -41 12 -2 6 -15 9 -30 5 -22 -4 -24 -3 -12
6 12 9 11 10 -7 5 -32 -9 -99 5 -81 17 9 7 5 8 -14 4 -14 -3 -86 1 -160 9
-152 17 -296 19 -318 5 -12 -8 -9 -10 13 -10 17 0 27 -5 27 -15 0 -9 14 -17
38 -21 20 -3 47 -13 60 -20 12 -8 34 -19 48 -25 26 -9 26 -9 12 13 -8 13 -25
28 -37 34 -14 7 -18 14 -12 18 6 4 33 -5 60 -19 58 -29 80 -33 61 -10 -7 8
-11 15 -9 16 31 6 40 6 44 -1 3 -4 13 -6 23 -3 26 6 121 -105 107 -126 -3 -5
4 -7 15 -4 11 3 28 -1 37 -8 9 -8 28 -14 42 -15 58 -2 147 -17 159 -27 9 -7
20 -6 36 3 18 9 29 9 45 1 24 -13 28 -31 6 -31 -10 0 -15 -10 -15 -29 0 -43
-10 -61 -33 -61 -19 0 -19 -1 -3 -19 16 -18 16 -20 -6 -35 -20 -15 -47 -16
-219 -10 -137 5 -210 3 -245 -5 -27 -6 -74 -13 -104 -14 -38 -1 -61 -8 -73
-20 -27 -27 -14 -32 51 -20 31 7 78 15 105 19 68 9 60 -12 -10 -26 -67 -13
-113 -29 -113 -40 0 -7 15 -5 190 25 198 34 293 37 378 11 59 -18 61 -20 46
-37 -15 -17 -15 -19 0 -25 9 -3 16 -10 16 -14 0 -14 -68 -40 -107 -40 -25 0
-33 -3 -24 -9 10 -7 8 -12 -10 -25 -31 -21 -64 -20 -119 5 -37 17 -70 21 -178
24 -127 3 -180 15 -134 29 11 4 24 6 28 5 5 -2 27 2 49 9 22 6 75 14 118 17
121 11 106 27 -19 22 -121 -5 -219 -35 -228 -70 -4 -16 -12 -19 -40 -15 -25 3
-36 0 -36 -9 0 -9 -16 -12 -59 -10 -76 4 -101 -14 -101 -71 0 -35 5 -43 40
-67 22 -15 47 -44 57 -64 10 -20 28 -40 41 -46 12 -5 22 -13 22 -17 0 -4 16
-15 36 -23 25 -10 34 -20 31 -30 -8 -19 -5 -21 88 -40 44 -9 87 -23 95 -31 12
-12 6 -14 -50 -14 -72 -1 -66 -10 18 -30 29 -7 69 -20 90 -30 98 -47 177 -59
376 -56 135 2 191 6 194 14 2 7 21 12 43 12 22 0 39 5 39 11 0 16 31 38 52 39
9 0 36 18 60 40 24 22 48 40 54 40 19 0 45 36 38 54 -3 9 -16 16 -28 16 -41 0
-37 13 10 37 25 13 49 23 53 23 15 0 -1 -49 -18 -53 -11 -3 -9 -5 6 -6 13 0
27 7 32 18 6 10 22 22 36 25 14 4 25 14 25 24 0 15 2 15 10 2 15 -24 12 -50
-12 -83 -13 -18 -30 -45 -38 -62 -16 -31 -27 -34 -86 -20 -26 6 -35 3 -58 -21
-26 -28 -36 -74 -16 -74 6 0 10 8 10 17 0 44 78 73 98 37 8 -14 15 -11 48 23
46 48 53 57 78 106 27 52 33 38 7 -16 -11 -24 -21 -49 -21 -56 0 -20 -100
-179 -115 -185 -10 -3 -8 6 6 31 24 43 19 54 -9 19 -24 -31 -32 -33 -32 -7 0
19 -25 31 -47 24 -16 -6 -17 -30 -3 -35 13 -4 -7 -66 -27 -86 -7 -7 -13 -19
-12 -25 0 -7 7 -2 16 11 13 19 43 31 43 17 0 -2 -18 -23 -39 -45 -26 -27 -41
-37 -44 -28 -3 8 -8 4 -15 -12 -6 -14 -22 -37 -37 -53 -14 -15 -23 -32 -20
-37 3 -5 0 -7 -8 -4 -8 3 -21 -3 -28 -13 -13 -17 -100 -73 -164 -106 -42 -21
-164 -27 -322 -17 -111 8 -157 16 -290 55 -164 48 -278 95 -338 141 -20 15
-38 25 -40 22 -5 -4 98 -75 142 -97 119 -61 326 -123 483 -146 233 -35 378
-11 506 82 17 13 34 23 37 23 3 0 39 34 80 75 40 41 78 75 83 75 5 0 14 -8 21
-19 9 -15 8 -23 -4 -40 -8 -12 -12 -29 -9 -38 5 -12 12 -8 34 19 15 19 37 45
50 58 13 14 48 68 79 120 31 52 59 97 62 100 3 3 20 31 36 63 17 32 37 66 45
75 8 10 21 29 29 43 22 40 75 108 84 109 5 0 15 6 23 14 28 28 99 30 166 5 34
-12 69 -30 78 -38 9 -9 27 -23 39 -31 12 -8 19 -21 16 -28 -2 -7 2 -32 10 -55
11 -30 15 -87 15 -200 0 -153 15 -296 31 -307 15 -10 -13 -80 -31 -80 -22 0
-61 -71 -42 -77 6 -3 12 -14 12 -26 0 -11 9 -31 21 -43 17 -18 19 -26 10 -43
-7 -12 -18 -21 -26 -21 -8 0 -15 -7 -15 -15 0 -8 -7 -15 -15 -15 -11 0 -15
-12 -15 -51 0 -46 2 -51 20 -46 30 8 114 -27 118 -49 1 -11 -9 -35 -23 -53
-19 -26 -22 -37 -12 -43 15 -10 -36 -56 -68 -60 -11 -2 -20 -9 -20 -16 0 -7
-13 -21 -30 -30 -16 -9 -38 -25 -49 -34 -11 -10 -31 -18 -45 -18 -14 0 -56 -7
-92 -14 -72 -16 -206 -30 -281 -31 -36 0 -48 -4 -48 -15 0 -8 -33 19 -72 61
-92 95 -154 129 -251 136 -41 3 -97 0 -130 -7 l-58 -12 17 -26 c10 -15 24 -40
32 -55 30 -60 144 -148 242 -187 19 -7 41 -18 49 -24 8 -6 22 -10 32 -8 21 4
107 -24 126 -40 11 -8 7 -14 -14 -25 -21 -11 -28 -11 -34 -1 -4 7 -11 9 -15 5
-4 -4 -16 0 -26 9 -12 12 -21 14 -30 7 -7 -6 -37 -13 -67 -17 -44 -6 -55 -4
-68 11 -10 13 -16 15 -19 6 -9 -20 -23 -15 -17 6 8 33 -33 37 -64 7 -34 -34
-47 -33 -40 3 7 35 -1 45 -22 28 -9 -8 -32 -19 -51 -27 -19 -7 -49 -19 -67
-26 -17 -8 -36 -14 -41 -14 -6 0 -12 -6 -15 -12 -2 -7 -8 -10 -12 -6 -12 11
76 68 107 68 15 0 28 5 28 10 0 14 -33 12 -86 -6 -32 -11 -50 -12 -57 -5 -7 7
-21 4 -45 -11 l-35 -22 5 22 c8 30 -21 29 -72 -3 -42 -27 -50 -27 -24 0 24 23
12 28 -25 9 -23 -12 -35 -13 -45 -5 -10 8 -21 7 -42 -4 -42 -22 -61 -18 -30 6
35 28 33 43 -4 24 -43 -22 -59 -18 -27 9 24 19 26 24 13 29 -9 4 -16 2 -16 -3
0 -6 -5 -10 -12 -10 -6 0 -19 -6 -27 -14 -9 -8 -32 -16 -51 -20 l-35 -6 33 15
c35 17 43 30 12 22 -10 -3 -20 -1 -22 5 -2 6 -14 5 -31 -1 -23 -9 -29 -8 -34
5 -9 25 11 49 38 46 14 -1 19 1 12 5 -6 5 -10 23 -8 41 2 26 15 46 59 88 32
30 59 54 61 54 3 0 38 30 114 97 20 18 42 33 49 33 6 0 12 7 12 15 0 8 6 15
14 15 14 0 26 29 26 63 0 11 -8 17 -21 17 -18 0 -20 4 -15 28 3 15 3 22 0 16
-7 -17 -53 -4 -65 17 -9 17 -12 18 -25 4 -9 -8 -21 -15 -28 -15 -6 0 -27 -16
-45 -35 -18 -20 -50 -45 -70 -56 -20 -11 -61 -39 -91 -64 -30 -24 -62 -45 -70
-45 -10 -1 -8 -4 5 -9 17 -7 13 -12 -31 -34 -28 -14 -64 -39 -80 -55 -19 -18
-49 -33 -86 -41 l-56 -14 -7 -88 c-4 -49 -11 -89 -16 -89 -16 0 -10 -20 9 -27
22 -9 42 -29 42 -42 0 -6 16 -11 35 -11 30 0 35 3 35 23 0 13 7 32 15 43 13
16 16 17 25 4 6 -10 13 -11 18 -5 10 14 65 50 77 50 6 0 15 4 21 8 8 4 14 -3
19 -20 4 -16 2 -29 -4 -31 -5 -2 -7 -10 -4 -19 4 -11 3 -14 -6 -9 -11 7 -88
-51 -84 -64 1 -4 -24 -23 -55 -44 -44 -29 -65 -37 -91 -34 -33 4 -34 4 -12
-13 l22 -18 -21 -11 c-16 -9 -18 -15 -10 -30 6 -11 21 -20 33 -20 19 -1 20 -2
7 -13 -19 -15 -24 -65 -8 -84 9 -11 9 -17 -3 -24 -12 -8 -11 -12 4 -23 13 -10
17 -21 12 -35 -4 -15 -2 -21 9 -21 13 0 14 -4 5 -24 -9 -19 -7 -29 6 -50 12
-18 15 -36 11 -61 -6 -33 -5 -35 19 -35 27 0 31 -17 19 -80 -12 -55 -52 -52
-59 6 -1 15 -14 38 -28 50 -14 12 -23 25 -19 29 4 4 0 12 -9 18 -9 7 -17 17
-18 22 -5 33 -16 46 -42 52 -16 3 -34 12 -40 19 -6 8 -17 14 -23 14 -7 0 -12
24 -14 66 -1 48 -7 73 -19 86 -20 22 -22 110 -4 116 12 4 15 32 4 32 -21 -1
-37 -22 -48 -66 -6 -26 -18 -50 -25 -52 -8 -3 -10 0 -6 7 4 7 11 45 15 86 l7
75 -34 0 c-31 0 -34 -2 -28 -25 5 -18 2 -25 -8 -25 -10 0 -16 24 -21 98 -4 53
-5 104 -3 112 2 9 -6 16 -19 18 -19 3 -23 10 -23 40 0 34 -34 120 -52 133 -11
7 -12 37 -2 68 5 16 4 22 -4 17 -6 -4 -12 3 -14 16 -2 16 -9 22 -23 21 -17 -1
-16 1 7 18 25 19 26 23 27 114 0 95 -5 109 -29 80 -7 -8 -17 -15 -22 -15 -10
0 -3 232 12 370 7 57 6 114 -2 177 -13 108 1 394 26 508 8 39 21 96 27 128 7
31 15 57 19 57 3 0 15 -28 25 -62 24 -82 30 -60 15 65 -6 56 -10 166 -9 244 2
78 1 145 -3 148 -8 9 -54 14 -131 14 l-58 1 7 38 c13 75 15 75 120 69 l94 -5
53 52 c60 59 95 73 237 91 87 11 423 10 442 -1z m2643 -19 c-45 -19 -130 -30
-121 -16 4 6 15 11 24 11 14 0 15 2 3 9 -10 6 9 9 55 9 65 -1 67 -2 39 -13z
m-1606 -28 c12 -15 12 -17 -3 -11 -9 3 -16 13 -16 22 0 8 1 13 3 11 1 -2 9
-12 16 -22z m1461 3 c12 -8 11 -10 -7 -10 -12 0 -25 5 -28 10 -8 13 15 13 35
0z m193 -7 c-7 -2 -19 -2 -25 0 -7 3 -2 5 12 5 14 0 19 -2 13 -5z m1105 -109
c16 -5 22 -14 22 -34 0 -16 8 -36 18 -46 22 -22 42 -233 29 -309 -4 -27 -9
-66 -11 -85 -1 -19 -10 -49 -19 -67 -9 -18 -17 -44 -17 -58 l0 -27 -31 26
c-50 42 -280 143 -366 161 -18 4 -35 10 -37 13 -8 13 78 0 101 -16 16 -9 36
-13 59 -9 29 5 35 3 30 -9 -4 -9 3 -18 20 -24 30 -12 45 -5 38 15 -4 8 1 18
10 21 9 3 16 12 16 20 0 7 11 16 25 20 21 5 25 12 25 45 0 22 5 39 11 39 14 0
2 152 -12 161 -19 12 3 39 32 39 22 0 29 5 29 20 0 11 -5 20 -10 20 -6 0 -8
10 -5 23 3 12 7 32 8 45 1 24 2 24 35 16z m-58 -69 c0 -9 -9 -15 -24 -15 -13
0 -26 -7 -30 -15 -7 -18 -26 -20 -26 -2 0 13 47 46 68 47 6 0 12 -7 12 -15z
m-3475 -5 c-3 -5 -19 -10 -36 -10 -16 0 -29 5 -29 10 0 6 16 10 36 10 21 0 33
-4 29 -10z m-1175 -56 c0 -13 -4 -24 -10 -24 -5 0 -10 14 -10 31 0 17 4 28 10
24 6 -3 10 -17 10 -31z m4 -116 c-2 -35 -10 -101 -16 -148 -6 -47 -10 -93 -10
-102 0 -10 -3 -20 -9 -23 -12 -8 -12 41 1 141 5 43 12 105 15 137 9 77 25 73
19 -5z m4380 56 c23 -9 20 -24 -4 -24 -11 0 -20 7 -20 15 0 17 2 18 24 9z m60
-33 c21 -23 12 -44 -15 -36 -11 4 -19 2 -19 -5 0 -15 -42 -8 -48 8 -2 7 6 12
22 12 19 0 26 5 26 20 0 25 12 25 34 1z m-2298 -99 c-12 -11 -18 7 -10 30 l8
23 4 -23 c2 -13 1 -26 -2 -30z m-1136 -28 c0 -2 -21 -4 -47 -3 -37 1 -42 3
-23 8 24 7 70 3 70 -5z m2570 4 c51 -1 65 -3 35 -5 -367 -23 -583 -58 -696
-112 -23 -12 -50 -21 -58 -21 -14 0 -14 -1 -1 -10 13 -8 12 -12 -7 -25 -12 -8
-29 -22 -38 -31 -13 -14 -15 -14 -15 0 0 8 10 22 22 30 14 10 17 16 8 16 -17
0 -70 -49 -70 -66 0 -15 -31 -28 -41 -17 -13 15 39 80 94 116 92 61 329 113
592 131 28 1 59 1 70 0 11 -2 58 -5 105 -6z m830 2 c0 -5 -4 -10 -9 -10 -6 0
-13 5 -16 10 -3 6 1 10 9 10 9 0 16 -4 16 -10z m-23 -26 c-3 -3 -12 -4 -19 -1
-8 3 -5 6 6 6 11 1 17 -2 13 -5z m-2338 -135 c5 -49 3 -72 -6 -85 -7 -10 -18
-35 -24 -56 -5 -21 -14 -38 -19 -38 -13 0 -13 7 0 31 6 10 11 35 12 54 1 19 5
35 9 35 13 0 20 71 10 103 -5 18 -12 46 -15 62 -5 30 -5 29 10 -4 9 -19 19
-65 23 -102z m1396 110 c-49 -4 -130 -10 -180 -13 l-90 -5 60 13 c33 8 114 13
180 13 l120 0 -90 -8z m990 -39 c-3 -5 -10 -10 -16 -10 -5 0 -9 5 -9 10 0 6 7
10 16 10 8 0 12 -4 9 -10z m-1170 -30 c-3 -5 -15 -10 -26 -10 -11 0 -17 5 -14
10 3 6 15 10 26 10 11 0 17 -4 14 -10z m1040 -80 c3 -5 -3 -10 -14 -10 -11 0
-23 5 -26 10 -3 6 3 10 14 10 11 0 23 -4 26 -10z m-830 -10 c3 -5 17 -10 31
-10 14 0 24 -6 24 -14 0 -8 8 -17 18 -19 36 -10 -34 -7 -93 4 -70 12 -93 16
-120 18 -15 2 -11 6 15 16 42 16 116 19 125 5z m933 -16 c4 -5 28 -21 55 -34
26 -14 47 -28 47 -32 0 -5 9 -8 20 -8 11 0 20 -4 20 -10 0 -5 6 -10 13 -10 42
0 88 -126 84 -231 -1 -42 -5 -75 -9 -72 -5 2 -8 -8 -8 -24 -1 -82 -166 -450
-282 -628 -59 -89 -129 -154 -215 -199 -49 -25 -40 -12 24 33 32 23 53 41 46
41 -6 0 -15 -5 -18 -10 -14 -23 -166 -89 -251 -109 -215 -50 -574 -12 -784 82
-48 22 -112 70 -161 121 -35 36 -101 163 -130 250 -22 66 -23 80 -9 71 6 -4 8
-10 5 -14 -2 -5 2 -17 10 -27 8 -10 15 -29 15 -41 0 -12 11 -35 25 -51 14 -17
25 -34 25 -40 0 -28 106 -172 127 -172 3 0 21 -11 40 -26 18 -14 33 -21 33
-15 0 5 -6 12 -12 14 -10 4 -9 8 2 16 13 9 13 11 -2 11 -21 0 -22 8 -8 46 6
16 7 30 2 33 -5 3 -12 60 -15 126 -6 117 -6 121 18 148 16 17 34 27 53 27 15
0 33 5 39 11 9 9 20 8 45 -3 35 -17 244 -48 316 -48 23 0 42 -4 42 -10 0 -5
-19 -10 -42 -10 -32 0 -39 -3 -28 -10 21 -13 163 -12 197 1 15 7 83 12 151 12
67 1 122 4 122 9 0 12 38 10 45 -2 3 -5 21 -10 40 -10 31 0 35 -3 41 -36 4
-24 13 -38 25 -41 11 -3 22 -17 25 -32 4 -14 9 -30 12 -36 3 -5 5 -28 3 -52
-2 -27 2 -43 9 -43 6 0 8 -5 4 -12 -4 -6 -8 -24 -9 -38 l-2 -28 32 32 c37 36
129 169 144 210 15 38 13 55 -3 34 -18 -24 -30 -23 -23 1 3 14 1 18 -10 14
-14 -6 -14 -17 3 -58 7 -19 7 -19 -9 -3 -10 9 -17 32 -17 52 0 30 -4 36 -22
36 -20 0 -20 1 -4 19 11 12 15 27 12 39 -4 13 -1 22 9 26 9 3 15 18 15 41 0
19 4 35 9 35 12 0 34 55 36 91 3 62 5 69 20 69 10 0 15 10 15 28 0 15 5 33 12
40 7 7 9 12 4 12 -4 0 -14 -7 -23 -15 -19 -20 -35 -10 -27 19 9 37 -14 190
-31 202 -18 14 -19 31 -2 37 21 7 -8 32 -53 46 -44 13 -51 26 -20 34 26 7 26
35 0 62 l-20 22 76 -2 c41 -1 79 -6 82 -11z m-2023 -29 c39 -8 90 -21 115 -28
l45 -14 -55 0 c-30 -1 -85 -6 -122 -12 -54 -9 -73 -8 -102 4 -60 25 -116 18
-116 -15 0 -11 -4 -21 -9 -25 -6 -3 -24 -30 -41 -61 -18 -30 -40 -63 -50 -72
-10 -9 -20 -26 -22 -37 -4 -25 -22 -22 -26 4 -2 12 5 24 17 30 11 6 18 18 15
25 -3 8 -1 17 5 20 6 4 15 24 21 46 6 21 18 56 27 77 9 21 17 40 18 43 4 32
157 40 280 15z m1062 -31 c36 -7 59 -39 43 -59 -8 -10 -5 -15 17 -23 19 -7 22
-11 9 -11 -12 -1 -16 -6 -12 -16 4 -11 -3 -19 -22 -27 -15 -7 -35 -20 -45 -31
-13 -12 -28 -17 -45 -13 -15 2 -58 10 -96 17 -51 9 -70 16 -73 30 -3 9 -16 20
-30 24 l-25 6 27 25 c17 16 24 30 20 43 -4 15 2 20 37 28 49 12 152 16 195 7z
m-237 -44 c0 -5 -7 -10 -16 -10 -8 0 -12 5 -9 10 3 6 10 10 16 10 5 0 9 -4 9
-10z m-1310 -35 c25 -6 29 -9 19 -21 -16 -20 -56 -18 -62 4 -2 9 -8 26 -13 37
-7 19 -7 19 9 3 9 -9 31 -19 47 -23z m138 9 c-7 -15 -14 -21 -16 -15 -2 7 2
18 8 26 18 22 21 18 8 -11z m-1288 -4 c0 -5 -4 -10 -10 -10 -5 0 -10 5 -10 10
0 6 5 10 10 10 6 0 10 -4 10 -10z m153 -32 c-2 -5 -9 -8 -14 -8 -6 0 -7 5 -4
10 3 6 1 10 -5 10 -6 0 -8 4 -5 10 4 6 11 5 19 -3 8 -6 12 -15 9 -19z m1811
-20 c3 -29 8 -100 11 -158 5 -105 5 -105 -11 -60 -14 42 -34 256 -25 266 12
12 19 -1 25 -48z m-1904 32 c0 -5 7 -10 15 -10 7 0 18 -6 22 -14 10 -16 108
-41 124 -30 8 5 10 2 6 -8 -4 -12 8 -18 55 -28 55 -12 59 -14 37 -23 -13 -6
-28 -9 -32 -8 -5 1 -6 -3 -2 -8 3 -6 -3 -15 -14 -20 -21 -11 -51 -5 -51 10 0
5 -15 9 -33 9 -18 0 -52 9 -75 20 -22 11 -46 20 -51 20 -6 0 -14 6 -18 13 -4
6 -21 20 -38 29 -16 9 -32 24 -33 33 -3 15 2 16 40 10 31 -4 39 -3 28 4 -13 9
-13 11 3 11 9 0 17 -4 17 -10z m1170 -4 c0 -3 -4 -8 -10 -11 -5 -3 -10 -1 -10
4 0 6 5 11 10 11 6 0 10 -2 10 -4z m-990 -16 c0 -5 -9 -10 -20 -10 -11 0 -20
5 -20 10 0 6 9 10 20 10 11 0 20 -4 20 -10z m3858 -155 c-6 -14 -13 -23 -15
-21 -5 5 15 46 22 46 3 0 -1 -11 -7 -25z m-3801 9 c-3 -3 -12 -4 -19 -1 -8 3
-5 6 6 6 11 1 17 -2 13 -5z m2136 -50 c4 -23 2 -25 -22 -19 -55 14 -64 45 -12
45 23 0 30 -5 34 -26z m-138 -55 c11 -17 -1 -21 -15 -4 -8 9 -8 15 -2 15 6 0
14 -5 17 -11z m65 -18 c0 -5 14 -11 30 -14 28 -6 43 -27 19 -27 -13 0 -99 39
-99 45 0 3 11 5 25 5 14 0 25 -4 25 -9z m-390 -31 c0 -11 -4 -20 -10 -20 -5 0
-10 9 -10 20 0 11 5 20 10 20 6 0 10 -9 10 -20z m563 -7 c-7 -2 -19 -2 -25 0
-7 3 -2 5 12 5 14 0 19 -2 13 -5z m-47 -14 c9 -16 -18 -30 -33 -17 -7 6 -10
14 -7 19 7 13 31 11 40 -2z m-1394 -59 c-12 -11 -23 -16 -27 -10 -3 6 -2 10 3
10 5 0 12 10 16 22 4 18 8 20 18 10 9 -9 7 -16 -10 -32z m919 -2 c14 -25 40
-133 41 -165 0 -13 4 -23 10 -23 5 0 6 -4 3 -10 -3 -5 -18 -10 -33 -10 -23 0
-24 1 -8 13 20 14 10 52 -13 52 -8 0 -16 6 -18 13 -3 6 3 12 11 12 17 0 15 22
-5 78 -10 25 -12 62 -4 62 2 0 10 -10 16 -22z m73 -4 c9 -24 4 -25 -23 -3 -22
18 -22 19 -3 19 11 0 23 -7 26 -16z m266 -84 c0 -5 -4 -10 -10 -10 -5 0 -10 5
-10 10 0 6 5 10 10 10 6 0 10 -4 10 -10z m1528 -31 c-7 -5 -13 -14 -14 -21 0
-7 -2 -23 -2 -35 -1 -12 -14 -33 -28 -46 l-26 -25 26 5 c14 3 26 2 26 -3 0
-17 -25 -74 -32 -74 -4 0 -8 -6 -8 -12 0 -30 -36 -98 -52 -98 -30 0 -48 -12
-48 -31 0 -23 -13 -25 -30 -4 -16 19 -5 49 15 41 18 -7 21 24 4 41 -9 9 -6 21
12 50 13 21 27 40 31 41 4 2 8 10 8 18 0 8 4 14 9 14 5 0 28 38 52 85 34 67
46 82 56 73 11 -9 11 -13 1 -19z m-1449 -8 c9 -6 10 -11 2 -15 -13 -8 -31 1
-31 15 0 11 11 11 29 0z m-104 -41 c-3 -5 -10 -10 -16 -10 -5 0 -9 5 -9 10 0
6 7 10 16 10 8 0 12 -4 9 -10z m1255 -220 c0 -5 -4 -10 -10 -10 -5 0 -10 5
-10 10 0 6 5 10 10 10 6 0 10 -4 10 -10z m-38 -32 c-7 -7 -12 -8 -12 -2 0 14
12 26 19 19 2 -3 -1 -11 -7 -17z m-4425 -30 c-3 -8 -6 -5 -6 6 -1 11 2 17 5
13 3 -3 4 -12 1 -19z m4397 -13 c-9 -14 -18 -25 -20 -25 -2 0 2 11 8 25 6 14
15 25 20 25 5 0 1 -11 -8 -25z m164 -22 c-10 -2 -18 -12 -19 -21 0 -12 -2 -13
-6 -3 -4 11 -7 11 -14 0 -4 -7 -11 -10 -15 -6 -13 12 18 37 45 36 17 -1 20 -3
9 -6z m-53 -72 c-6 -5 -25 10 -25 20 0 5 6 4 14 -3 8 -7 12 -15 11 -17z m55 6
c9 -3 3 -6 -12 -6 -20 -1 -28 4 -28 15 0 12 4 14 13 7 6 -6 19 -13 27 -16z
m-19 -166 c-6 -4 -14 -25 -17 -47 -8 -53 -24 -95 -35 -88 -5 3 -9 16 -9 29 0
13 -4 25 -8 27 -12 4 -23 78 -11 78 5 0 9 -11 9 -24 0 -30 9 -56 20 -56 5 0 6
18 3 40 -6 43 10 75 34 66 9 -4 13 4 13 24 0 20 -5 30 -15 30 -18 0 -19 24 -3
53 11 20 14 14 22 -51 7 -55 6 -76 -3 -81z m-96 99 c21 -24 14 -27 -9 -4 -15
14 -16 14 -16 0 0 -9 -8 -16 -19 -16 -11 0 -22 -4 -25 -9 -3 -4 6 -7 19 -5 14
1 27 -2 31 -7 3 -5 -6 -9 -20 -9 -14 0 -26 -4 -26 -9 0 -5 -7 -17 -16 -25 -14
-15 -13 -16 8 -16 21 -1 21 -2 -12 -29 -19 -16 -38 -27 -41 -25 -4 2 -15 1
-24 -2 -13 -6 -14 -9 -3 -16 8 -6 -2 -8 -32 -5 -25 3 -37 3 -27 0 9 -2 17 -8
17 -13 0 -8 -24 -20 -41 -20 -14 0 -6 44 11 57 10 8 11 12 3 13 -6 0 -15 -4
-18 -10 -3 -5 -16 -10 -28 -11 -21 0 -21 -1 -2 -9 16 -7 11 -9 -22 -9 -63 -1
-61 15 4 34 59 17 107 40 131 63 7 6 17 12 21 12 4 0 31 20 60 45 29 25 54 45
55 45 2 0 11 -9 21 -20z m-4257 -19 c3 -8 -1 -12 -9 -9 -7 2 -15 10 -17 17 -3
8 1 12 9 9 7 -2 15 -10 17 -17z m3032 -45 c0 -2 -13 -3 -30 -3 -27 0 -39 15
-24 30 5 5 54 -20 54 -27z m46 -15 c14 -13 189 -59 289 -75 50 -8 140 -18 200
-21 135 -7 175 -13 175 -25 0 -6 -7 -10 -15 -10 -8 0 -15 -4 -15 -10 0 -5 5
-10 10 -10 6 0 10 -7 10 -15 0 -8 -4 -15 -10 -15 -12 0 -14 -53 -2 -64 7 -7 8
-11 11 -37 0 -6 8 -8 17 -5 21 8 44 -11 44 -35 0 -24 -35 -26 -44 -2 -5 13 -9
14 -19 4 -9 -9 -9 -14 3 -21 12 -8 12 -10 -3 -16 -9 -3 -17 -13 -17 -21 0 -21
-29 -42 -57 -43 -14 0 -23 -6 -23 -15 0 -20 -49 -64 -72 -65 -19 0 -79 30 -90
45 -5 6 -12 5 -20 -3 -19 -19 -28 -14 -28 13 0 16 6 25 15 25 18 0 18 -1 4 39
-9 27 -8 35 6 51 16 18 16 19 -8 25 -13 4 -31 5 -38 4 -29 -5 -89 14 -89 27 0
8 -10 14 -23 14 -29 0 -54 19 -59 44 -1 10 -12 24 -22 30 -11 6 -29 21 -41 33
-12 12 -36 24 -55 25 -18 1 -35 8 -37 15 -3 7 -11 13 -19 13 -8 0 -14 2 -14 4
0 2 -3 11 -6 20 -8 22 22 21 34 0 5 -9 14 -14 21 -10 16 10 14 36 -4 36 -13 0
-19 12 -12 25 1 2 -7 11 -18 19 -16 12 -17 15 -4 16 8 0 19 -4 25 -9z m-3076
-28 c0 -14 -19 -38 -25 -32 -8 8 5 39 16 39 5 0 9 -3 9 -7z m2587 1 c-3 -3
-12 -4 -19 -1 -8 3 -5 6 6 6 11 1 17 -2 13 -5z m179 -44 c8 0 14 -4 14 -10 0
-5 11 -12 24 -16 l24 -6 -21 -49 c-12 -27 -25 -49 -29 -49 -5 0 -3 10 3 22 10
18 8 24 -7 35 -15 11 -21 10 -37 -4 -18 -17 -20 -17 -33 2 -8 10 -14 23 -14
27 0 15 54 70 58 59 2 -6 10 -11 18 -11z m1549 -147 c-10 -56 -15 -73 -25 -73
-14 0 -20 43 -8 58 9 10 9 18 0 33 -11 17 -9 19 13 19 24 0 26 -2 20 -37z
m-2647 -110 c2 -8 -5 -13 -17 -13 -12 0 -21 6 -21 16 0 18 31 15 38 -3z m2622
-28 c0 -8 -4 -15 -10 -15 -5 0 -10 7 -10 15 0 8 5 15 10 15 6 0 10 -7 10 -15z
m-3520 -85 c0 -5 -4 -10 -10 -10 -5 0 -10 5 -10 10 0 6 5 10 10 10 6 0 10 -4
10 -10z m-5 -49 c-6 -5 -24 -12 -41 -15 -24 -5 -31 -3 -31 8 0 11 7 14 24 10
16 -4 25 -1 29 11 5 11 10 13 17 6 7 -7 7 -14 2 -20z m-88 -16 c0 -8 -7 -15
-15 -15 -12 0 -12 3 -2 15 7 8 13 15 15 15 1 0 2 -7 2 -15z m743 -5 c0 -5 -2
-10 -4 -10 -3 0 -8 5 -11 10 -3 6 -1 10 4 10 6 0 11 -4 11 -10z m-1530 -30 c0
-5 -5 -10 -11 -10 -5 0 -7 5 -4 10 3 6 8 10 11 10 2 0 4 -4 4 -10z m1391 -33
c-10 -9 -11 -8 -5 6 3 10 9 15 12 12 3 -3 0 -11 -7 -18z m2022 -59 c-8 -16
-33 -7 -48 16 -13 20 -14 29 -5 47 12 21 13 21 34 -17 13 -22 21 -42 19 -46z
m-2773 -18 c-14 -4 -32 -8 -40 -9 -13 -1 -13 0 0 9 8 5 26 9 40 9 l25 -1 -25
-8z m-700 -120 c0 -10 -4 -22 -10 -25 -6 -4 -10 7 -10 25 0 18 4 29 10 25 6
-3 10 -15 10 -25z m283 -109 c3 -14 1 -18 -9 -14 -15 6 -18 16 -7 26 9 10 10
9 16 -12z m-183 -11 c0 -5 -5 -10 -11 -10 -5 0 -7 5 -4 10 3 6 8 10 11 10 2 0
4 -4 4 -10z m1815 -20 c3 -5 1 -10 -4 -10 -6 0 -11 5 -11 10 0 6 2 10 4 10 3
0 8 -4 11 -10z m183 -39 c49 -42 9 -74 -55 -45 -40 19 -53 31 -53 52 0 20 81
14 108 -7z m-1788 -16 c0 -8 -4 -15 -10 -15 -5 0 -10 7 -10 15 0 8 5 15 10 15
6 0 10 -7 10 -15z m927 -53 c100 -83 120 -93 182 -85 31 3 62 13 70 20 26 27
122 48 107 24 -3 -5 22 -12 55 -15 33 -4 80 -16 105 -27 25 -10 57 -19 70 -19
13 0 24 -5 24 -11 0 -6 7 -8 16 -5 8 3 12 2 9 -4 -3 -6 2 -10 12 -10 11 0 28
-6 38 -14 12 -8 32 -12 51 -9 20 3 41 -1 57 -12 18 -11 36 -14 61 -10 33 7
125 -16 150 -37 5 -4 14 -4 20 1 15 12 55 -4 63 -24 13 -34 -60 -59 -82 -28
-11 14 -14 14 -36 0 -13 -8 -39 -18 -56 -22 -25 -5 -33 -12 -33 -28 0 -12 -8
-27 -19 -34 -16 -10 -20 -8 -29 12 -7 15 -8 35 -2 54 5 18 5 33 -1 36 -13 9
-29 -4 -30 -23 0 -12 -3 -11 -9 6 -13 31 -30 28 -30 -5 0 -16 -12 -50 -26 -78
-24 -47 -25 -48 -19 -15 3 19 11 48 17 63 13 34 9 39 -37 43 -25 2 -38 -1 -42
-12 -3 -9 -8 -11 -12 -6 -3 6 -23 13 -44 17 -30 6 -37 4 -37 -9 0 -9 -4 -16
-10 -16 -5 0 -10 -9 -10 -19 0 -11 5 -23 10 -26 16 -10 12 -25 -7 -26 -17 0
-17 -1 -1 -7 9 -4 -36 -7 -100 -8 -139 -1 -172 -11 -172 -52 0 -49 20 -92 52
-108 30 -15 31 -20 17 -74 -3 -9 9 -20 29 -29 19 -9 32 -22 32 -33 0 -11 7
-18 20 -18 12 0 31 -6 43 -14 15 -10 74 -16 200 -21 l179 -8 10 -28 c9 -28 28
-40 28 -19 0 6 9 6 26 0 14 -6 30 -7 36 -4 5 4 20 2 31 -4 12 -6 30 -13 40
-16 10 -3 17 -13 15 -23 -8 -52 41 -56 88 -8 l34 35 94 0 c90 0 97 2 122 27
24 23 30 25 56 15 23 -8 35 -7 61 6 18 9 34 20 35 25 2 4 10 7 17 7 7 0 16 7
19 16 5 13 14 15 44 10 79 -15 79 -15 39 -51 -20 -18 -37 -42 -37 -53 0 -12
-8 -23 -19 -27 -13 -4 -20 -19 -25 -54 -3 -26 -13 -56 -21 -67 -8 -10 -15 -29
-15 -41 0 -18 -6 -23 -27 -23 -25 -1 -26 -2 -10 -14 26 -20 21 -26 -13 -13
-16 6 -30 14 -30 17 0 3 -20 6 -44 7 -37 1 -45 -2 -55 -23 -6 -13 -14 -24 -19
-24 -14 0 -53 41 -47 50 7 11 -20 20 -66 20 -25 0 -42 -5 -45 -15 -4 -10 -15
-12 -35 -8 -22 4 -29 2 -29 -11 0 -9 8 -16 18 -17 11 0 12 -2 4 -6 -16 -6 -52
25 -53 46 0 11 -4 9 -11 -6 -11 -23 -38 -32 -38 -13 0 6 -4 10 -9 10 -6 0 -6
-12 -1 -30 11 -39 -13 -42 -32 -3 -18 36 -38 41 -38 10 0 -54 -23 -76 -34 -33
-3 13 -17 31 -31 40 -16 10 -25 26 -26 44 -1 18 -3 21 -6 9 -3 -13 -11 -17
-24 -14 -23 6 -24 -2 -4 -39 8 -16 15 -39 15 -51 0 -12 5 -25 10 -28 6 -3 10
-1 10 4 0 6 5 11 10 11 6 0 10 -13 10 -29 0 -17 -4 -33 -10 -36 -9 -6 -14 8
-11 28 0 4 -4 7 -9 7 -6 0 -10 -9 -10 -20 0 -11 -5 -20 -11 -20 -6 0 -8 7 -5
16 6 16 -41 71 -57 66 -4 -1 -10 6 -14 15 -8 21 -23 33 -42 33 -10 0 -12 -9
-8 -35 6 -34 5 -35 -21 -28 -15 3 -28 10 -30 15 -2 4 -11 8 -19 8 -13 0 -13 3
-3 15 7 9 10 19 6 22 -10 11 -86 14 -86 4 0 -4 -11 -13 -25 -19 -29 -13 -32
-6 -9 27 11 15 23 21 35 18 11 -3 17 -1 13 4 -5 9 1 11 36 13 20 1 26 36 6 36
-8 0 -17 -4 -20 -9 -3 -5 -27 -12 -53 -15 -105 -14 -123 -18 -123 -27 0 -5
-10 -19 -22 -31 -21 -21 -22 -21 -37 -2 -9 10 -32 20 -51 22 -19 1 -38 9 -43
17 -10 19 -27 19 -27 0 0 -8 -7 -15 -16 -15 -23 0 -74 32 -74 47 0 18 -25 16
-40 -2 -7 -8 -16 -12 -21 -9 -5 3 -18 0 -29 -6 -14 -8 -20 -8 -20 0 0 6 14 16
30 21 43 15 41 41 -2 28 -34 -9 -83 -11 -60 -2 20 8 14 22 -8 16 -11 -3 -31 2
-44 10 -16 11 -36 14 -60 10 -24 -4 -36 -2 -36 6 0 6 5 11 10 11 6 0 10 7 10
15 0 8 5 15 12 15 28 0 -11 21 -48 25 -21 3 -44 6 -49 7 -11 1 -15 22 -16 71
0 17 -10 39 -24 53 -15 15 -25 37 -25 52 0 16 -6 34 -12 41 -11 10 -10 14 5
22 19 11 24 39 6 39 -5 0 -7 4 -4 10 9 15 -6 81 -19 79 -31 -4 -44 3 -50 26
-4 14 -10 25 -14 25 -4 0 -13 4 -20 8 -15 10 -6 42 12 42 6 0 19 14 28 30 14
25 15 30 3 30 -19 0 -51 -32 -60 -60 -4 -11 -12 -19 -18 -17 -14 4 -22 97 -8
97 15 0 14 37 0 46 -8 5 -6 10 5 16 9 5 16 17 16 28 0 30 11 50 28 50 12 0 13
3 4 12 -7 7 -12 18 -12 25 0 22 53 62 81 63 15 0 33 7 40 16 26 32 102 53 176
49 43 -2 59 -9 100 -43z m211 -18 c34 -10 26 -24 -13 -24 -24 0 -35 5 -35 15
0 16 12 18 48 9z m-1328 -94 c0 -5 -4 -10 -10 -10 -5 0 -10 5 -10 10 0 6 5 10
10 10 6 0 10 -4 10 -10z m-17 -84 c6 -16 -2 -28 -14 -20 -12 7 -11 34 0 34 5
0 11 -6 14 -14z m1724 -108 c-3 -8 -6 -5 -6 6 -1 11 2 17 5 13 3 -3 4 -12 1
-19z m2679 -55 c-10 -10 -19 5 -10 18 6 11 8 11 12 0 2 -7 1 -15 -2 -18z
m-2566 7 c0 -5 -4 -10 -10 -10 -5 0 -10 -7 -10 -15 0 -18 -12 -19 -28 -3 -17
17 -15 31 3 25 8 -4 17 -2 20 3 8 13 25 13 25 0z m2536 -88 c-11 -10 -15 4 -8
28 l7 25 3 -23 c2 -13 1 -26 -2 -30z m-3636 13 c0 -8 5 -15 12 -15 6 0 9 -2 6
-5 -3 -3 -13 -3 -22 1 -17 7 -22 34 -6 34 6 0 10 -7 10 -15z m-640 -25 c6 -11
7 -20 2 -20 -10 0 -32 21 -32 32 0 16 19 8 30 -12z m67 -42 c-3 -8 -6 -5 -6 6
-1 11 2 17 5 13 3 -3 4 -12 1 -19z m2829 -58 c12 0 12 -2 2 -14 -7 -7 -17 -12
-23 -11 -5 2 -23 6 -39 10 l-29 6 34 17 c26 13 35 14 37 5 2 -7 10 -13 18 -13z
m1254 -40 c0 -5 -7 -10 -16 -10 -8 0 -12 5 -9 10 3 6 10 10 16 10 5 0 9 -4 9
-10z m-4006 -66 c4 -9 4 -19 2 -21 -8 -8 -26 8 -26 23 0 19 16 18 24 -2z
m2591 -14 c4 -6 -9 -10 -32 -9 -30 0 -34 2 -18 9 27 12 43 12 50 0z m-2565
-50 c0 -5 -8 -10 -17 -10 -15 0 -16 2 -3 10 19 12 20 12 20 0z m3730 -170 c0
-5 -5 -10 -11 -10 -5 0 -7 5 -4 10 3 6 8 10 11 10 2 0 4 -4 4 -10z m-2899 -45
c0 -13 -41 -19 -41 -7 0 11 20 22 33 18 5 -1 8 -6 8 -11z m209 -75 c-20 -13
-40 -13 -40 0 0 6 12 10 28 10 21 0 24 -2 12 -10z m270 0 c0 -5 -10 -15 -22
-21 -23 -12 -23 -12 -4 10 21 23 26 26 26 11z m-224 -35 c-23 -21 -56 -25 -56
-6 0 7 73 39 79 34 2 -1 -8 -14 -23 -28z m264 5 c0 -13 -5 -18 -15 -14 -11 5
-12 9 -2 20 16 18 17 17 17 -6z m900 -4 c0 -3 -4 -8 -10 -11 -5 -3 -10 -1 -10
4 0 6 5 11 10 11 6 0 10 -2 10 -4z m-965 -36 c-3 -5 -16 -10 -28 -9 -21 0 -21
1 -2 9 28 12 37 12 30 0z m-978 -276 c-3 -3 -12 -4 -19 -1 -8 3 -5 6 6 6 11 1
17 -2 13 -5z m273 -349 c0 -8 -7 -15 -15 -15 -9 0 -12 6 -9 15 4 8 10 15 15
15 5 0 9 -7 9 -15z m40 -5 c0 -5 -2 -10 -4 -10 -3 0 -8 5 -11 10 -3 6 -1 10 4
10 6 0 11 -4 11 -10z m25 -29 c3 -5 1 -12 -5 -16 -5 -3 -10 1 -10 9 0 18 6 21
15 7z m145 -133 c0 -24 -17 -23 -30 1 -16 32 -13 43 10 29 11 -7 20 -21 20
-30z m80 -104 c20 -52 3 -50 -28 4 -10 19 -10 22 3 22 9 0 20 -12 25 -26z m60
-54 c0 -5 -5 -10 -11 -10 -5 0 -7 5 -4 10 3 6 8 10 11 10 2 0 4 -4 4 -10z m60
-25 c0 -17 -2 -18 -24 -9 -23 9 -20 24 4 24 11 0 20 -7 20 -15z m6280 -1935
c0 -5 -4 -10 -9 -10 -6 0 -13 5 -16 10 -3 6 1 10 9 10 9 0 16 -4 16 -10z
m-5942 -806 c17 -5 22 -13 20 -36 -3 -36 -7 -39 -44 -29 -24 6 -29 13 -29 39
-1 34 8 38 53 26z m-432 -1289 c7 -19 13 -60 13 -92 l-1 -58 -13 60 c-7 33
-16 75 -20 93 -10 42 2 41 21 -3z m-300 -240 c-6 -17 -26 45 -25 78 1 28 2 26
15 -18 7 -27 12 -54 10 -60z"/>
<path d="M5358 10493 c7 -3 16 -2 19 1 4 3 -2 6 -13 5 -11 0 -14 -3 -6 -6z"/>
<path d="M7826 10471 c-4 -7 -5 -15 -2 -18 9 -9 19 4 14 18 -4 11 -6 11 -12 0z"/>
<path d="M7680 10440 c0 -5 11 -10 25 -10 14 0 25 5 25 10 0 6 -11 10 -25 10
-14 0 -25 -4 -25 -10z"/>
<path d="M7426 10371 c-4 -7 -5 -15 -2 -18 9 -9 19 4 14 18 -4 11 -6 11 -12 0z"/>
<path d="M6610 10005 c0 -14 5 -25 10 -25 6 0 10 11 10 25 0 14 -4 25 -10 25
-5 0 -10 -11 -10 -25z"/>
<path d="M6470 9914 c-13 -32 -13 -34 3 -34 6 0 12 13 13 30 1 37 -3 38 -16 4z"/>
<path d="M6307 9876 c-4 -10 -5 -21 -2 -24 9 -9 17 6 13 25 -3 17 -4 17 -11
-1z"/>
<path d="M6435 9880 c-3 -5 -1 -10 4 -10 6 0 11 5 11 10 0 6 -2 10 -4 10 -3 0
-8 -4 -11 -10z"/>
<path d="M6450 9851 c0 -12 28 -22 35 -12 3 5 -2 12 -11 15 -21 8 -24 8 -24
-3z"/>
<path d="M6507 9845 c-7 -18 1 -45 14 -45 5 0 9 9 9 20 0 11 0 23 1 27 1 15
-19 13 -24 -2z"/>
<path d="M6396 9815 c-9 -26 -7 -32 5 -12 6 10 9 21 6 23 -2 3 -7 -2 -11 -11z"/>
<path d="M6430 9811 c0 -5 5 -13 10 -16 6 -3 10 -2 10 4 0 5 -4 13 -10 16 -5
3 -10 2 -10 -4z"/>
<path d="M6485 9630 c11 -5 27 -9 35 -9 13 -1 13 0 0 9 -8 5 -24 9 -35 9 l-20
0 20 -9z"/>
<path d="M4487 10289 c-55 -6 -92 -16 -122 -34 -93 -54 -115 -120 -120 -365
-2 -96 -1 -157 1 -135 33 323 47 379 105 447 45 53 72 64 209 83 96 14 45 17
-73 4z"/>
<path d="M4342 10160 c-12 -16 -22 -38 -22 -50 0 -11 -4 -20 -8 -20 -9 0 -28
-94 -37 -185 -10 -100 -13 -305 -4 -311 17 -10 39 64 49 159 5 51 14 124 19
162 22 164 33 266 29 270 -2 3 -14 -9 -26 -25z"/>
<path d="M4970 10178 c0 -9 7 -19 16 -22 25 -10 27 -1 4 19 -17 15 -20 16 -20
3z"/>
<path d="M5036 10157 c3 -10 9 -15 12 -12 3 3 0 11 -7 18 -10 9 -11 8 -5 -6z"/>
<path d="M5448 10163 c7 -3 16 -2 19 1 4 3 -2 6 -13 5 -11 0 -14 -3 -6 -6z"/>
<path d="M5075 10100 c-3 -5 -1 -10 4 -10 6 0 11 5 11 10 0 6 -2 10 -4 10 -3
0 -8 -4 -11 -10z"/>
<path d="M5311 10031 c-11 -7 -10 -11 5 -19 23 -12 44 -5 44 14 0 16 -27 18
-49 5z"/>
<path d="M4672 9803 c2 -21 8 -38 13 -38 6 0 11 17 13 38 3 29 0 37 -13 37
-13 0 -16 -8 -13 -37z"/>
<path d="M4258 9548 c-7 -17 15 -162 34 -233 30 -112 59 -179 100 -237 11 -16
16 -33 12 -39 -4 -8 -3 -9 5 -5 7 4 40 -19 82 -57 72 -66 201 -137 299 -166
25 -8 67 -20 93 -28 27 -8 50 -13 53 -11 2 3 -42 20 -98 38 -249 80 -370 172
-461 347 -15 29 -27 58 -27 64 0 6 -6 25 -14 42 -16 37 -21 55 -44 189 -17 97
-25 120 -34 96z"/>
<path d="M4432 8991 c13 -16 30 -32 38 -36 8 -3 -1 10 -19 29 -42 44 -51 46
-19 7z"/>
<path d="M4253 8013 c-7 -2 -13 -11 -13 -18 0 -10 5 -11 24 -2 33 16 23 34
-11 20z"/>
<path d="M5730 7911 c0 -6 5 -13 10 -16 6 -3 10 1 10 9 0 9 -4 16 -10 16 -5 0
-10 -4 -10 -9z"/>
<path d="M5750 7860 c0 -13 7 -20 20 -20 11 0 20 1 20 3 0 1 -9 10 -20 20 -19
16 -20 16 -20 -3z"/>
<path d="M4640 7826 c0 -2 7 -9 15 -16 13 -11 14 -10 9 4 -5 14 -24 23 -24 12z"/>
<path d="M4624 7775 c-17 -13 -17 -14 -2 -15 9 0 20 5 23 11 11 17 0 20 -21 4z"/>
<path d="M4380 7730 c0 -5 5 -10 10 -10 6 0 10 5 10 10 0 6 -4 10 -10 10 -5 0
-10 -4 -10 -10z"/>
<path d="M4560 7555 c0 -8 7 -15 15 -15 8 0 15 4 15 9 0 5 -7 11 -15 15 -9 3
-15 0 -15 -9z"/>
<path d="M4640 7204 c0 -14 4 -23 9 -20 5 3 7 15 4 26 -7 28 -13 25 -13 -6z"/>
<path d="M8791 9984 c0 -11 3 -14 6 -6 3 7 2 16 -1 19 -3 4 -6 -2 -5 -13z"/>
<path d="M8640 9704 c0 -9 -8 -23 -17 -30 -16 -12 -12 -13 25 -8 39 5 59 -7
30 -19 -9 -4 -8 -6 3 -6 8 -1 20 4 27 11 9 9 4 18 -18 40 -34 32 -50 36 -50
12z"/>
<path d="M8636 9393 c-3 -16 -12 -68 -21 -118 -9 -49 -22 -119 -30 -155 -7
-36 -13 -72 -13 -80 1 -9 -2 -28 -6 -43 -7 -30 8 -37 19 -9 46 112 106 396 90
422 -12 19 -33 10 -39 -17z"/>
<path d="M8510 8869 c0 -5 5 -7 10 -4 6 3 10 8 10 11 0 2 -4 4 -10 4 -5 0 -10
-5 -10 -11z"/>
<path d="M8195 8520 c3 -5 11 -10 16 -10 6 0 7 5 4 10 -3 6 -11 10 -16 10 -6
0 -7 -4 -4 -10z"/>
<path d="M8221 8476 l-24 -13 30 1 c20 1 29 5 26 14 -3 6 -6 12 -7 12 0 -1
-12 -7 -25 -14z"/>
<path d="M8547 8693 c-4 -3 -7 -13 -7 -22 1 -13 3 -13 11 2 11 19 8 33 -4 20z"/>
<path d="M8295 8360 c3 -5 8 -10 11 -10 2 0 4 5 4 10 0 6 -5 10 -11 10 -5 0
-7 -4 -4 -10z"/>
<path d="M8247 8329 c7 -7 15 -10 18 -7 3 3 -2 9 -12 12 -14 6 -15 5 -6 -5z"/>
<path d="M8205 8290 c-8 -13 5 -13 25 0 13 8 13 10 -2 10 -9 0 -20 -4 -23 -10z"/>
<path d="M5419 7182 c9 -18 78 -48 88 -39 3 3 -3 17 -14 31 -13 18 -27 25 -51
26 -28 0 -31 -2 -23 -18z"/>
<path d="M5520 7186 c0 -15 18 -31 26 -23 7 7 -7 37 -17 37 -5 0 -9 -6 -9 -14z"/>
<path d="M5520 7122 c0 -15 4 -20 16 -15 9 3 12 9 7 12 -4 3 -11 10 -15 15 -5
5 -8 0 -8 -12z"/>
<path d="M5555 7090 c3 -5 10 -10 16 -10 5 0 9 5 9 10 0 6 -7 10 -16 10 -8 0
-12 -4 -9 -10z"/>
<path d="M5696 7084 c-3 -8 -10 -13 -15 -9 -17 10 -21 -12 -6 -25 12 -10 15
-9 15 4 0 18 25 22 35 6 4 -6 11 -8 16 -4 12 7 3 21 -21 34 -13 7 -19 6 -24
-6z"/>
<path d="M5805 6460 c-4 -6 -3 -16 3 -22 6 -6 12 -6 17 2 4 6 3 16 -3 22 -6 6
-12 6 -17 -2z"/>
<path d="M6151 6378 c1 -17 3 -18 6 -6 2 10 10 15 19 11 8 -3 14 0 14 6 0 6
-9 11 -20 11 -14 0 -20 -6 -19 -22z"/>
<path d="M4175 12157 c-4 -10 -5 -21 -1 -24 10 -10 18 4 13 24 -4 17 -4 17
-12 0z"/>
<path d="M4174 12080 c3 -14 8 -47 11 -75 7 -53 20 -85 34 -85 5 0 2 19 -6 43
-8 23 -16 60 -18 81 -2 21 -9 44 -15 50 -8 8 -10 4 -6 -14z"/>
<path d="M4230 11845 c0 -5 5 -17 10 -25 5 -8 10 -10 10 -5 0 6 -5 17 -10 25
-5 8 -10 11 -10 5z"/>
<path d="M9241 9978 c-24 -44 -38 -77 -32 -74 12 8 84 146 79 151 -2 2 -23
-33 -47 -77z"/>
<path d="M3553 9500 c-54 -22 -63 -39 -63 -125 0 -44 5 -96 10 -115 6 -19 13
-57 16 -85 3 -27 12 -68 19 -90 6 -22 18 -59 25 -82 7 -24 16 -43 20 -43 4 0
10 -15 14 -32 23 -127 36 -146 31 -48 -2 47 -6 99 -7 115 -2 20 1 29 9 28 7
-2 15 9 19 25 3 15 9 41 14 57 5 17 11 67 14 112 5 78 35 159 50 135 3 -5 18
-13 32 -16 15 -4 52 -25 82 -47 55 -38 91 -52 75 -26 -4 6 -8 17 -9 24 -2 14
-37 62 -45 63 -4 0 -37 25 -75 55 -76 61 -156 105 -188 104 -12 0 -31 -4 -43
-9z"/>
<path d="M3950 7265 c0 -8 7 -15 15 -15 8 0 15 4 15 9 0 5 -7 11 -15 15 -9 3
-15 0 -15 -9z"/>
<path d="M8545 7210 c-3 -5 -1 -10 4 -10 6 0 11 5 11 10 0 6 -2 10 -4 10 -3 0
-8 -4 -11 -10z"/>
<path d="M5736 4944 c-8 -21 -8 -21 9 -28 11 -4 15 1 15 19 0 28 -15 33 -24 9z"/>
<path d="M5772 4918 c-17 -17 -15 -38 3 -38 9 0 15 9 15 25 0 29 -1 30 -18 13z"/>
<path d="M4845 4750 c3 -5 8 -10 11 -10 2 0 4 5 4 10 0 6 -5 10 -11 10 -5 0
-7 -4 -4 -10z"/>
<path d="M5460 4440 c0 -22 -4 -40 -10 -40 -5 0 -10 -9 -10 -20 0 -17 7 -20
40 -20 35 0 40 3 40 23 0 17 2 19 10 7 6 -9 6 -18 0 -24 -17 -17 -11 -21 30
-22 22 -1 40 2 40 7 0 5 -6 9 -14 9 -7 0 -16 13 -19 29 -8 38 -37 68 -48 49
-6 -9 -9 -4 -9 15 0 22 -4 27 -25 27 -22 0 -25 -4 -25 -40z"/>
<path d="M5360 4454 c0 -8 5 -12 10 -9 6 4 8 11 5 16 -9 14 -15 11 -15 -7z"/>
<path d="M5407 4434 c-3 -3 -3 -12 0 -19 6 -17 33 -8 33 11 0 14 -21 19 -33 8z"/>
<path d="M5334 4406 c-10 -8 -17 -17 -14 -19 3 -3 14 1 24 9 11 7 17 16 15 19
-3 3 -14 -2 -25 -9z"/>
<path d="M5360 4360 c0 -5 7 -10 15 -10 8 0 15 5 15 10 0 6 -7 10 -15 10 -8 0
-15 -4 -15 -10z"/>
<path d="M5490 4206 c0 -8 7 -16 15 -20 10 -4 15 1 15 14 0 11 -7 20 -15 20
-8 0 -15 -6 -15 -14z"/>
<path d="M6573 4023 c-3 -10 -8 -22 -11 -26 -2 -5 5 -4 17 2 23 13 27 26 11
36 -6 3 -13 -2 -17 -12z"/>
<path d="M6481 3874 c0 -11 3 -14 6 -6 3 7 2 16 -1 19 -3 4 -6 -2 -5 -13z"/>
<path d="M6320 3740 c0 -5 5 -10 11 -10 5 0 7 5 4 10 -3 6 -8 10 -11 10 -2 0
-4 -4 -4 -10z"/>
</g>
</svg>
